<svg width="96" height="86" viewBox="0 0 96 86" fill="none" xmlns="http://www.w3.org/2000/svg">
<path d="M50.4 86L43.2 79.8571L50.4 73.7143L57.6 79.8571L50.4 86ZM33.84 79.8571L28.8 75.5571L42.96 63.4762L48 67.7762L33.84 79.8571ZM64.8 73.7143L57.6 67.5714L64.8 61.4286L72 67.5714L64.8 73.7143ZM21.6 73.7143L14.4 67.5714L21.6 61.4286L28.8 67.5714L21.6 73.7143ZM26.4 57.3333C19.12 57.3333 12.8992 55.1315 7.7376 50.7277C2.576 46.324 -0.00319703 41.0179 2.97398e-06 34.8095C2.97398e-06 29.1444 2.2 24.196 6.6 19.9643C11 15.7325 16.44 13.2413 22.92 12.4905C25.48 8.60001 28.9808 5.54496 33.4224 3.32534C37.864 1.10572 42.7232 -0.00272513 48 5.031e-06C55.2 5.031e-06 61.4608 1.96299 66.7824 5.88896C72.104 9.81492 75.3232 14.7115 76.44 20.5786C81.96 20.9881 86.6 22.9333 90.36 26.4143C94.12 29.8952 96 34.0587 96 38.9048C96 44.0238 93.9008 48.3757 89.7024 51.9604C85.504 55.5451 80.4032 57.3361 74.4 57.3333H26.4Z" fill="white"/>
</svg>
